<?xml version="1.0" encoding="UTF-8" standalone="no"?>
<svg
   xmlns:dc="http://purl.org/dc/elements/1.1/"
   xmlns:cc="http://creativecommons.org/ns#"
   xmlns:rdf="http://www.w3.org/1999/02/22-rdf-syntax-ns#"
   xmlns:svg="http://www.w3.org/2000/svg"
   xmlns="http://www.w3.org/2000/svg"
   xmlns:sodipodi="http://sodipodi.sourceforge.net/DTD/sodipodi-0.dtd"
   xmlns:inkscape="http://www.inkscape.org/namespaces/inkscape"
   version="1.0"
   width="13.240234"
   height="28.95117"
   viewBox="0 0 132.40234 289.5117"
   preserveAspectRatio="xMidYMid meet"
   id="svg68"
   sodipodi:docname="O-end.svg"
   inkscape:version="0.92.3 (2405546, 2018-03-11)"
   inkscape:export-filename="/home/webby/Pictures/queue_logo/006_11.svg.png"
   inkscape:export-xdpi="480"
   inkscape:export-ydpi="480">
  <metadata
     id="metadata74">
    <rdf:RDF>
      <cc:Work
         rdf:about="">
        <dc:format>image/svg+xml</dc:format>
        <dc:type
           rdf:resource="http://purl.org/dc/dcmitype/StillImage" />
        <dc:title></dc:title>
      </cc:Work>
    </rdf:RDF>
  </metadata>
  <defs
     id="defs72" />
  <sodipodi:namedview
     pagecolor="#ffffff"
     bordercolor="#666666"
     borderopacity="1"
     objecttolerance="10"
     gridtolerance="10"
     guidetolerance="10"
     inkscape:pageopacity="0"
     inkscape:pageshadow="2"
     inkscape:window-width="1366"
     inkscape:window-height="713"
     id="namedview70"
     showgrid="false"
     inkscape:zoom="8"
     inkscape:cx="41.062768"
     inkscape:cy="18.284325"
     inkscape:window-x="0"
     inkscape:window-y="27"
     inkscape:window-maximized="1"
     inkscape:current-layer="svg68"
     showguides="false"
     inkscape:guide-bbox="true"
     fit-margin-top="0"
     fit-margin-left="0"
     fit-margin-right="0"
     fit-margin-bottom="0" />
  <path
     inkscape:connector-curvature="0"
     id="path2088"
     d="m 0,0 c 17.8357,0.09 34.776523,3.1182 50.800778,9.1602 15.999999,6.1333 30.135677,15.331 42.402343,27.5976 11.999999,12 21.608599,27.062 28.808599,45.1953 6.93333,18.1334 10.39062,39.0792 10.39062,62.8125 0,23.7334 -3.45729,44.6597 -10.39062,62.793 -7.2,18.1333 -16.8086,33.3388 -28.808599,45.6055 -12.266666,12 -26.402344,21.0541 -42.402343,27.1875 C 34.776522,286.3935 17.8357,289.4217 0,289.5117 m 0,-33.9453 c 14.13333,0 26.93177,-2.5505 38.398434,-7.6172 11.2,-5.3333 20.808593,-12.7828 28.808594,-22.3828 7.733333,-9.6 13.721614,-21.2047 17.988281,-34.8047 4.266666,-13.8666 6.40625,-29.1961 6.40625,-45.9961 0,-16.8 -2.139584,-32.0054 -6.40625,-45.6054 C 80.928642,85.2935 74.940361,73.565 67.207028,63.9648 59.207026,54.3648 49.598434,47.0198 38.398434,41.9531 26.93177,36.6198 14.13333,33.9649 0,33.9648"
     style="font-style:normal;font-variant:normal;font-weight:normal;font-stretch:normal;font-size:medium;line-height:1.25;font-family:ubuntu;-inkscape-font-specification:ubuntu;letter-spacing:0px;word-spacing:0px;fill:#000000;fill-opacity:1;stroke:none;stroke-width:10"
     sodipodi:nodetypes="ccccsccccccccscccc" />
  <flowRoot
     style="font-style:normal;font-weight:normal;font-size:40px;line-height:1.25;font-family:sans-serif;letter-spacing:0px;word-spacing:0px;fill:#000000;fill-opacity:1;stroke:none"
     id="flowRoot2228"
     xml:space="preserve"
     transform="translate(-980,-7642.4414)"><flowRegion
       id="flowRegion2230"><rect
         y="631.02905"
         x="69.267601"
         height="48.27742"
         width="218.2979"
         id="rect2232" /></flowRegion><flowPara
       id="flowPara2234" /></flowRoot></svg>
